<svg width="152" height="27" viewBox="0 0 152 27" fill="none" xmlns="http://www.w3.org/2000/svg"> <path fill-rule="evenodd" clip-rule="evenodd" d="M89.4498 15.474C90.6793 14.9755 92.1338 16.1931 93.0704 17.5059C94.0075 18.8188 95.3237 21.2138 93.683 22.3817C92.0416 23.5499 89.599 21.6327 88.7717 19.4971C87.9447 17.3618 88.2211 15.9722 89.4498 15.474ZM97.6305 12.9092C97.3587 12.7233 84.7311 12.5329 83.4241 19.9386C83.1448 24.103 86.7177 25.6351 88.8552 25.6459C90.9922 25.6563 94.2401 24.7224 94.8318 23.8692C95.3691 23.6489 95.8467 24.0161 95.8862 24.5416C95.9203 25.0056 95.8842 25.9865 96.4398 26.2227C98.5227 27.1085 101.763 25.6857 101.253 19.987C100.566 14.4379 99.9769 13.104 97.6305 12.9092ZM132.512 16.9269C132.463 15.9994 132.42 12.4492 138.443 12.6037C144.195 13.4647 146.166 12.6689 147.984 13.4532C149.599 13.8129 150.995 16.8502 146.442 17.1329C144.434 16.9271 143.4 16.2581 142.666 15.8208C141.932 15.3833 140.813 14.9206 140.201 15.2806C139.589 15.6411 139.562 16.772 139.783 17.3383C140.003 17.9042 140.86 18.5482 141.839 18.7279C142.818 18.9082 143.455 19.0882 144.189 19.0365C144.924 18.9852 148.767 18.8825 150.163 19.3714C151.558 19.8597 151.975 20.889 151.999 21.9698C152.023 23.0505 151.683 23.6435 151.047 24.3383C148.519 27.0976 141.719 27.6667 136.563 26.2031C134.848 25.7162 130.393 22.9144 133.613 21.481C134.422 21.121 136.355 21.5585 137.09 21.9698C138.205 22.5949 142.425 25.7429 144.287 24.2345C145.13 23.5515 145.139 22.6138 144.576 21.8933C143.312 20.2753 139.613 20.8191 137.849 20.3759C136.721 20.1031 132.781 19.6035 132.512 16.9269ZM122.513 16.202C122.145 15.1789 122.714 14.6751 123.416 14.2454L126.199 13.0838C126.86 12.8079 127.719 12.782 127.842 13.8144C127.965 14.8468 128.295 23.041 127.184 24.8317C126.108 26.5672 124.813 26.2719 123.586 26.3757C122.754 26.4463 122.594 25.9681 122.584 25.4958C122.546 24.0591 123.185 17.0466 122.513 16.202ZM125.159 3.40827C127.1 3.15097 128.848 3.64017 129.048 5.45568C129.249 7.27141 127.829 8.17964 125.888 8.43704C123.947 8.69398 122.103 8.205 121.999 6.3896C121.894 4.57431 123.217 3.66531 125.159 3.40827ZM106.016 15.0883C106.016 15.0883 107.842 12.9831 109.155 12.6156C110.468 12.2479 111.02 12.7857 111.283 13.3914C111.548 13.9974 111.452 14.2247 111.956 14.3252C112.461 14.4264 112.653 14.4772 113.061 14.1236C113.47 13.7701 113.83 13.1895 114.262 12.9875C114.694 12.7857 115.199 12.533 115.871 12.4826C116.544 12.4318 117.697 12.4067 118.153 12.5836C118.609 12.7599 118.802 13.0886 118.922 13.6184C119.042 14.1487 118.97 15.1837 118.73 15.5122C118.489 15.8401 118.221 16.1955 117.793 16.3452C116.628 16.752 116.099 16.636 114.838 16.8251C113.392 17.0423 112.484 18.1671 112.148 19.7536C111.891 20.9694 111.908 22.1587 111.636 23.4012C111.215 25.3246 109.902 26.6233 108.017 26.4939C107.345 26.4479 106.936 26.3425 106.84 26.0144C107.14 21.0559 106.332 17.4177 105.847 15.5935C105.871 15.2905 106.016 15.0883 106.016 15.0883ZM52.4453 16.7831C52.6693 16.0513 53.7385 15.2148 54.9075 14.4828C56.0763 13.7508 56.8899 13.851 57.2379 13.9819C57.586 14.1127 57.6611 14.6091 57.9594 14.6874C58.2579 14.766 58.4318 14.7136 58.7303 14.5829C59.0284 14.452 60.7028 13.28 61.598 13.1233C62.4931 12.9665 64.0626 12.7766 65.2319 13.8222C66.4009 14.8676 66.9375 15.6769 67.435 15.7818C67.9326 15.8861 68.1637 15.6066 68.5369 15.3977C68.91 15.1886 70.3849 14.1648 70.8823 13.8248C71.3796 13.4853 72.4362 13.093 74.127 13.4329C75.8187 13.7724 77.7651 15.3576 78.7094 18.0379C79.6534 20.7182 79.4442 23.4197 79.4499 24.6776C79.2064 26.0229 78.3913 26.1179 77.869 26.4577C77.3468 26.7975 75.6269 27.2572 75.0402 26.1762C74.4169 24.5517 73.0276 20.8198 72.3063 19.5163C71.5853 18.2128 70.3158 17.2903 69.1219 18.653C68.2571 19.716 69.0621 23.3905 68.8354 24.3843C68.3771 26.3944 64.5286 27.7289 63.7646 25.2695C63.4073 24.1201 62.7415 20.155 62.2445 19.1093C61.7471 18.0638 61.2096 17.4832 59.9912 17.4575C58.7726 17.4313 58.5985 17.9279 58.4244 18.2417C58.2505 18.5554 58.1226 19.3642 58.1011 19.8886L57.9268 24.1329C57.9191 24.3223 57.9273 25.2832 57.1314 25.7536C56.3353 26.2243 53.8482 26.5736 53.5247 26.3645C53.2015 26.1556 53.1639 26.3618 53.0671 25.3051L52.5197 19.3446C52.4952 18.822 52.2216 17.515 52.4453 16.7831ZM34.7905 16.4811C36.2051 15.8256 38.1545 16.4405 39.3817 18.3407C40.6092 20.2411 41.7007 22.3822 39.4538 23.4953C37.2072 24.6081 35.7295 23.3646 34.5018 21.4642C33.274 19.5639 33.3758 17.1366 34.7905 16.4811ZM43.9905 13.412C42.5245 12.9857 29.4868 14.2525 28.9944 21.7751C28.8509 26.6642 32.9298 27.0349 34.2921 26.9978C37.1146 26.9207 40.2922 25.3484 40.8638 24.5143C41.4108 23.7339 41.8232 24.2541 42.2188 24.7716C42.4793 25.1123 42.6027 25.8443 43.1556 26.1748C44.0241 26.6939 48.1647 26.6488 47.3777 20.9281C47.0157 17.9537 46.2643 15.598 45.5672 14.5071C44.9568 13.551 44.3098 13.4867 43.9905 13.412ZM0 6.9936L9.51241 3.95492C9.51241 3.95492 12.5416 6.41666 15.2518 6.08236C14.8393 4.12682 13.6195 1.87955 13.6195 1.87955C14.4191 1.8374 17.9658 1.04515 19.5712 0.45388C20.3959 1.6319 21.4675 4.93343 22.0297 6.43753C24.022 6.61822 55.7283 6.9755 58.6684 7.05081C54.6766 8.50507 34.4719 10.4378 23.0224 11.8171C23.4047 16.8815 23.4544 21.2456 23.1202 26.3099L16.9607 26.2939C16.9498 21.0327 16.8175 17.2832 16.508 12.4289C7.46777 13.112 0.690549 10.3017 0 6.9936Z" fill="black"></path>
 </svg>