<svg width="1" height="1" viewBox="0 0 1 1" fill="none" xmlns="http://www.w3.org/2000/svg">
<path fill-rule="evenodd" clip-rule="evenodd" d="M0.180386 0.456735C0.181596 0.462752 0.183012 0.467379 0.18467 0.470633C0.186307 0.473839 0.189098 0.475446 0.193024 0.475446L0.182613 0.500919C0.178512 0.51088 0.174165 0.526013 0.169461 0.546209C0.164832 0.566491 0.163361 0.580904 0.165064 0.58954C0.166743 0.598063 0.17069 0.603637 0.176844 0.60631C0.182971 0.608918 0.188849 0.610244 0.194536 0.610244C0.203204 0.610244 0.213188 0.609274 0.224479 0.607228C0.235737 0.605235 0.244222 0.603145 0.249932 0.600979C0.252613 0.599983 0.254282 0.598383 0.255089 0.596277C0.255829 0.594195 0.25556 0.589852 0.254264 0.583279C0.253568 0.579801 0.252025 0.57806 0.249504 0.57806C0.246032 0.57806 0.242045 0.578831 0.237591 0.580393C0.233121 0.581915 0.228594 0.583157 0.224018 0.584065C0.219421 0.585049 0.212185 0.5855 0.202279 0.5855C0.199763 0.5855 0.198096 0.585207 0.197252 0.584614C0.196434 0.584065 0.195863 0.583029 0.195563 0.581543C0.194771 0.577552 0.195563 0.570599 0.197909 0.560627C0.20021 0.550628 0.202587 0.542399 0.204946 0.535863L0.225096 0.535357C0.233646 0.535149 0.239343 0.534918 0.242228 0.534569C0.245116 0.53424 0.246957 0.533537 0.247732 0.532459C0.248502 0.531335 0.248782 0.529338 0.248474 0.526419C0.248248 0.523714 0.248217 0.521711 0.248318 0.520382C0.248349 0.520048 0.248423 0.519573 0.248539 0.519025C0.248635 0.518377 0.248682 0.517851 0.248588 0.517376C0.24783 0.513569 0.24276 0.511646 0.233407 0.511646C0.226176 0.511646 0.218177 0.51214 0.209381 0.513188C0.211851 0.505036 0.215334 0.495285 0.219851 0.483952C0.222055 0.478241 0.223861 0.474426 0.225219 0.472451C0.226572 0.470446 0.228482 0.46924 0.230952 0.468712C0.233425 0.468203 0.23818 0.467962 0.245299 0.467962C0.247242 0.467962 0.253513 0.468377 0.264188 0.46924C0.26458 0.46924 0.265316 0.469301 0.266404 0.469379C0.267457 0.469461 0.268276 0.469504 0.268764 0.469504C0.27188 0.469504 0.273223 0.468505 0.272814 0.466477C0.272541 0.465126 0.271207 0.462464 0.268813 0.458526C0.264543 0.451463 0.260951 0.447007 0.257962 0.445077C0.254979 0.443154 0.250676 0.442196 0.245067 0.442196C0.232605 0.442196 0.218433 0.443154 0.202546 0.445077C0.186615 0.447008 0.179244 0.450867 0.180386 0.456735Z" fill="#ED1C24"/>
<path fill-rule="evenodd" clip-rule="evenodd" d="M0.7735 0.594912C0.776147 0.590858 0.77836 0.58769 0.780118 0.585432C0.781956 0.583107 0.785441 0.578715 0.790485 0.572208C0.795574 0.565729 0.800588 0.559329 0.805529 0.553087C0.810441 0.546852 0.815162 0.541052 0.819596 0.535625C0.82411 0.530232 0.829096 0.524372 0.83461 0.518062L0.827934 0.54707C0.825522 0.557946 0.823956 0.565172 0.823272 0.568735C0.822618 0.572286 0.822162 0.57591 0.821912 0.579554C0.821669 0.583247 0.821809 0.586512 0.822368 0.589377C0.823088 0.593069 0.825184 0.596496 0.828515 0.599605C0.83189 0.602779 0.835537 0.605266 0.839529 0.607153C0.843544 0.609036 0.846588 0.609974 0.848728 0.609974C0.851603 0.609974 0.853449 0.607574 0.854191 0.602733C0.854919 0.597904 0.855779 0.587885 0.856669 0.572668C0.857654 0.557505 0.859199 0.542672 0.86139 0.528235C0.863552 0.513765 0.867154 0.498757 0.872243 0.483212C0.882912 0.47407 0.887802 0.467301 0.886941 0.462863C0.886382 0.46003 0.884485 0.456598 0.881279 0.452542C0.878015 0.448495 0.874882 0.446474 0.871846 0.446474C0.868949 0.446474 0.863088 0.450723 0.854191 0.459258C0.845287 0.467807 0.8355 0.477982 0.824765 0.489843C0.814081 0.501724 0.804279 0.512879 0.795375 0.523368C0.786434 0.533807 0.781044 0.540402 0.779096 0.543035C0.782147 0.528739 0.784897 0.516987 0.787324 0.507817C0.789816 0.498672 0.792382 0.489831 0.795015 0.481213C0.797684 0.472621 0.799309 0.467007 0.800007 0.464376C0.800654 0.461723 0.800816 0.459574 0.8005 0.457941C0.800235 0.456597 0.798647 0.454601 0.795816 0.451968C0.793 0.449324 0.789934 0.446936 0.786647 0.44479C0.783397 0.442651 0.781118 0.441557 0.779802 0.441557C0.777493 0.441557 0.775397 0.443779 0.773493 0.448179C0.771588 0.45259 0.769574 0.459093 0.767559 0.467687C0.765507 0.476246 0.764412 0.480735 0.764309 0.481099C0.753287 0.522885 0.746456 0.55102 0.743779 0.565475C0.741125 0.579913 0.740037 0.588489 0.740566 0.591287C0.741007 0.593322 0.743779 0.596227 0.749029 0.599856C0.754206 0.603479 0.758471 0.605298 0.761824 0.605298C0.764 0.605298 0.765809 0.604594 0.767294 0.603159C0.768743 0.601724 0.770809 0.598986 0.7735 0.594912Z" fill="#ED1C24"/>
<path fill-rule="evenodd" clip-rule="evenodd" d="M0.995184 0.460305C0.992309 0.457771 0.989287 0.455443 0.986051 0.453335C0.982801 0.451223 0.980787 0.450169 0.979948 0.450169C0.977375 0.450169 0.974316 0.454152 0.970868 0.462012C0.967412 0.469919 0.964243 0.478458 0.961404 0.487656C0.958537 0.496857 0.956544 0.503571 0.955485 0.50771L0.947522 0.510061C0.944941 0.510935 0.941169 0.511762 0.936235 0.512683C0.931368 0.513612 0.927801 0.514074 0.925654 0.514074C0.922581 0.514074 0.920676 0.512155 0.919949 0.50844C0.919478 0.506041 0.920154 0.501554 0.921875 0.494983C0.923662 0.488379 0.925544 0.48259 0.927493 0.477555C0.929051 0.473961 0.930368 0.470815 0.931574 0.468294C0.932691 0.465709 0.933529 0.463734 0.933971 0.462298C0.934448 0.460865 0.934559 0.459522 0.934331 0.458385C0.93411 0.457262 0.932684 0.455298 0.929978 0.452512C0.927331 0.449753 0.9245 0.4472 0.921478 0.444943C0.918493 0.442697 0.916346 0.441557 0.915081 0.441557C0.912934 0.441557 0.90964 0.446474 0.905191 0.456255C0.900706 0.466035 0.896875 0.476593 0.893713 0.488007C0.890493 0.499372 0.889456 0.507626 0.890434 0.512638C0.891493 0.51803 0.894654 0.523734 0.899868 0.529874C0.905125 0.53601 0.910228 0.53907 0.915169 0.53907C0.917823 0.53907 0.923382 0.53795 0.931868 0.535745C0.940331 0.533565 0.946787 0.531703 0.951301 0.530188C0.950507 0.532765 0.949015 0.538935 0.946838 0.548599C0.944632 0.558267 0.942779 0.567352 0.941309 0.575796C0.939794 0.584256 0.939287 0.589795 0.939794 0.592364C0.940537 0.596101 0.943993 0.599364 0.950103 0.602192C0.953199 0.603631 0.956198 0.605286 0.959015 0.607139C0.96189 0.608954 0.963706 0.609892 0.964507 0.609892C0.966904 0.609892 0.968618 0.608263 0.969529 0.605055C0.970434 0.601765 0.971103 0.596536 0.971551 0.589369C0.971978 0.582187 0.972213 0.578309 0.972294 0.577615C0.974323 0.561461 0.976184 0.548716 0.977838 0.539334C0.979493 0.529971 0.981324 0.521804 0.983397 0.514732C0.985456 0.50771 0.988618 0.498101 0.992846 0.485989C0.994309 0.481697 0.995949 0.477602 0.997625 0.47374C0.999338 0.469918 1.00011 0.467594 0.999978 0.466799C0.99961 0.465062 0.998015 0.462879 0.995184 0.460305Z" fill="#ED1C24"/>
<path fill-rule="evenodd" clip-rule="evenodd" d="M0.169596 0.429358C0.169759 0.428982 0.169934 0.428438 0.17008 0.428171C0.173631 0.418085 0.179238 0.424977 0.182295 0.424451C0.187114 0.422961 0.189871 0.418671 0.190888 0.412606C0.191516 0.408975 0.191886 0.401524 0.189938 0.398426C0.188766 0.396555 0.184633 0.393425 0.17736 0.392033C0.161345 0.388938 0.133082 0.388979 0.108633 0.391862C0.0904722 0.394048 0.0666536 0.399185 0.0350423 0.410801C0.0242392 0.414772 0.00734935 0.4169 0.00234696 0.429826C-0.00170527 0.440265 -0.000167164 0.445889 0.00434368 0.448533C0.0142861 0.454343 0.0386842 0.445714 0.0497073 0.44223C0.0500119 0.442475 0.0503341 0.442719 0.0507962 0.443076C0.046751 0.465851 0.037814 0.493236 0.0350812 0.518449C0.0294744 0.534911 0.0186759 0.575765 0.0276881 0.591924C0.046283 0.603196 0.0576307 0.57124 0.0562267 0.570163C0.060935 0.556086 0.0756751 0.494417 0.0774178 0.477734C0.0778339 0.473534 0.0781891 0.470165 0.078842 0.465807C0.0800994 0.457333 0.0802553 0.448902 0.0816913 0.440941C0.0820854 0.438722 0.0833648 0.436889 0.0851906 0.435408C0.0932847 0.428802 0.112276 0.428702 0.115508 0.428702C0.118024 0.428096 0.125021 0.42703 0.130598 0.42525C0.133061 0.424473 0.133082 0.428018 0.132416 0.432127C0.131748 0.43621 0.13041 0.440863 0.130107 0.442304C0.129403 0.445725 0.128719 0.448655 0.127907 0.452263C0.126894 0.456782 0.124797 0.466004 0.119991 0.48658C0.109103 0.536241 0.100685 0.580412 0.109954 0.604386C0.11218 0.607629 0.11973 0.611096 0.121914 0.610128C0.127502 0.609099 0.13152 0.606678 0.134421 0.60339C0.139496 0.597639 0.14108 0.589209 0.141504 0.58088C0.142268 0.565629 0.144434 0.542271 0.147937 0.519221C0.150262 0.503925 0.157607 0.469886 0.163627 0.447741C0.165919 0.439332 0.168099 0.432752 0.169596 0.429358Z" fill="#ED1C24"/>
<path fill-rule="evenodd" clip-rule="evenodd" d="M0.319859 0.610242C0.321898 0.610242 0.323259 0.608714 0.323916 0.605671C0.324529 0.602629 0.325948 0.59371 0.328109 0.578956C0.330277 0.564251 0.333224 0.548407 0.336957 0.531396C0.340688 0.514421 0.346132 0.4943 0.353332 0.470974C0.35606 0.470226 0.361235 0.46969 0.368781 0.469273C0.376335 0.468879 0.381905 0.468153 0.385488 0.467125C0.389055 0.466033 0.39048 0.463779 0.389778 0.460324C0.389308 0.457877 0.387865 0.455125 0.385464 0.452221C0.383053 0.449264 0.37978 0.446753 0.375594 0.444696C0.371446 0.442599 0.36677 0.441557 0.361601 0.441557C0.36026 0.441557 0.358204 0.441713 0.355451 0.442045C0.352406 0.442372 0.347749 0.442687 0.341526 0.443046C0.335237 0.443368 0.330562 0.443692 0.327466 0.443967C0.309679 0.445297 0.29722 0.44678 0.290018 0.448429C0.282836 0.450045 0.2796 0.452807 0.28037 0.456733C0.282699 0.468482 0.287585 0.474335 0.29511 0.474335C0.296282 0.474335 0.304668 0.473688 0.320257 0.472401C0.318426 0.479329 0.315811 0.489637 0.312399 0.503387C0.309037 0.51719 0.306009 0.530049 0.303354 0.542015C0.300618 0.553968 0.298385 0.565074 0.296588 0.575292C0.294734 0.585561 0.294118 0.592045 0.294667 0.594819C0.295191 0.597444 0.297096 0.599885 0.300399 0.602306C0.303729 0.604652 0.307375 0.60656 0.311391 0.608037C0.315416 0.609516 0.318267 0.610242 0.319859 0.610242Z" fill="#ED1C24"/>
<path fill-rule="evenodd" clip-rule="evenodd" d="M0.586602 0.52228C0.584686 0.533457 0.581521 0.543851 0.57716 0.553618C0.572743 0.563385 0.56791 0.571218 0.562645 0.577154C0.557357 0.58313 0.55256 0.586121 0.54827 0.586121C0.546442 0.586121 0.544511 0.584785 0.542429 0.58209C0.540385 0.579397 0.53889 0.575738 0.537956 0.571158C0.535825 0.560294 0.535702 0.548893 0.537598 0.537151C0.53948 0.525365 0.54261 0.514594 0.546941 0.504734C0.551325 0.494946 0.556134 0.487031 0.561375 0.480998C0.566621 0.47497 0.571221 0.471968 0.575219 0.471968C0.580266 0.471968 0.584043 0.478381 0.586599 0.491241C0.588481 0.500803 0.588485 0.511147 0.586602 0.52228ZM0.609558 0.47161C0.60673 0.465213 0.603834 0.460292 0.600977 0.456834C0.59811 0.453419 0.595879 0.45169 0.594423 0.45169C0.593588 0.45169 0.591821 0.452356 0.589183 0.453768C0.586542 0.455126 0.584625 0.456216 0.58353 0.456982C0.580325 0.453252 0.576572 0.44975 0.572272 0.446453C0.568014 0.443179 0.564519 0.441557 0.561921 0.441557C0.557924 0.441557 0.55218 0.445012 0.544796 0.451956C0.537412 0.458905 0.530297 0.46828 0.523415 0.480012C0.516561 0.491809 0.511499 0.505303 0.508215 0.520542C0.504912 0.535803 0.504873 0.551423 0.508038 0.567352C0.5099 0.576876 0.513456 0.584872 0.51858 0.591337C0.523721 0.597818 0.529449 0.602556 0.535703 0.605613C0.541959 0.608714 0.547721 0.610243 0.552979 0.610243C0.565365 0.610243 0.577267 0.604724 0.588679 0.593708C0.600057 0.582658 0.608465 0.568089 0.613882 0.550033C0.61931 0.532019 0.620144 0.513285 0.616309 0.493915C0.614637 0.485485 0.612402 0.478032 0.609558 0.47161ZM0.707679 0.491085C0.70408 0.495876 0.699182 0.500328 0.692964 0.504481C0.686773 0.508681 0.680275 0.511968 0.673459 0.514323C0.677171 0.493804 0.678613 0.481272 0.677731 0.476781C0.677227 0.474258 0.675519 0.47177 0.67265 0.469312C0.678471 0.467537 0.68497 0.466668 0.692154 0.466668C0.697834 0.466668 0.702388 0.467723 0.705829 0.469957C0.709226 0.472154 0.711237 0.474899 0.711879 0.478193C0.712655 0.482044 0.711235 0.486339 0.707679 0.491085ZM0.695487 0.561641C0.691543 0.567156 0.685965 0.571681 0.678798 0.57521C0.67161 0.578811 0.664086 0.580555 0.656245 0.580555C0.659571 0.569339 0.662149 0.560684 0.664021 0.554705C0.665835 0.548676 0.66744 0.542754 0.668723 0.536737C0.673657 0.5353 0.678194 0.534566 0.682357 0.534566C0.692617 0.534566 0.698454 0.538221 0.699885 0.545384C0.700916 0.550679 0.699473 0.556118 0.695487 0.561641ZM0.732773 0.503957C0.73825 0.495396 0.740096 0.486459 0.73825 0.477223C0.736191 0.466693 0.730161 0.45814 0.720154 0.451522C0.710215 0.444894 0.697958 0.441558 0.683503 0.441558C0.677202 0.441558 0.668586 0.442525 0.657744 0.444449C0.647334 0.446241 0.639615 0.448061 0.634536 0.449869C0.629504 0.451691 0.627366 0.454543 0.628163 0.458459C0.628975 0.462583 0.630998 0.466693 0.634279 0.470849C0.637533 0.47496 0.64185 0.477477 0.64726 0.478436C0.645032 0.497643 0.642368 0.513971 0.639138 0.527455C0.635916 0.540965 0.632858 0.55149 0.629923 0.559082C0.627001 0.56662 0.62457 0.573186 0.622633 0.578682C0.620678 0.584149 0.620088 0.588885 0.620888 0.592898C0.621108 0.594018 0.62275 0.596027 0.625827 0.598882C0.628907 0.60169 0.632209 0.60431 0.63571 0.606677C0.639221 0.609026 0.641751 0.610244 0.643335 0.610244C0.645671 0.610244 0.647424 0.609199 0.648645 0.607128C0.64989 0.605024 0.651228 0.601274 0.652658 0.595759C0.661059 0.605452 0.669207 0.610244 0.677159 0.610244C0.684713 0.610244 0.692919 0.606738 0.701735 0.599607C0.710529 0.592484 0.717621 0.583965 0.722963 0.574107C0.728299 0.564182 0.730232 0.555414 0.728719 0.547846C0.727928 0.543833 0.726025 0.539623 0.723032 0.5353C0.720049 0.53093 0.715779 0.527121 0.710216 0.52376C0.719746 0.519059 0.727261 0.512501 0.732773 0.503957ZM0.468512 0.496742C0.463843 0.502806 0.457719 0.508511 0.450197 0.5139C0.44259 0.519235 0.435505 0.522954 0.42884 0.524946C0.429719 0.518032 0.431502 0.508165 0.434229 0.495285C0.435835 0.487623 0.437079 0.482535 0.437984 0.479969C0.438798 0.477373 0.440184 0.475559 0.442015 0.474503C0.443886 0.47342 0.447052 0.472735 0.451595 0.472409C0.452774 0.47226 0.454581 0.472154 0.457003 0.472154C0.467299 0.472154 0.47303 0.475223 0.474251 0.481379C0.475099 0.485585 0.473182 0.490729 0.468512 0.496742ZM0.494626 0.461628C0.489648 0.455878 0.482945 0.451073 0.474351 0.447256C0.465837 0.443442 0.456079 0.441558 0.445052 0.441558C0.438741 0.441558 0.432103 0.442239 0.425086 0.443604C0.418049 0.444921 0.412202 0.446947 0.407497 0.449563C0.402785 0.452211 0.400757 0.455221 0.401427 0.458687C0.403565 0.469379 0.407476 0.476065 0.413249 0.478658C0.407906 0.501067 0.403616 0.5184 0.40048 0.530629C0.397353 0.54289 0.394084 0.555216 0.390736 0.567724C0.38737 0.580157 0.385404 0.587951 0.38481 0.590964C0.384271 0.594015 0.384149 0.596529 0.384519 0.598451C0.385108 0.601397 0.386354 0.603321 0.388321 0.604254C0.390227 0.605194 0.393469 0.606138 0.397959 0.607125C0.400231 0.607644 0.402671 0.608285 0.405173 0.609081C0.407663 0.609843 0.409391 0.61024 0.41034 0.61024C0.413113 0.61024 0.415205 0.608712 0.416552 0.60571C0.417851 0.602707 0.418971 0.59808 0.419886 0.591897C0.420779 0.585697 0.421958 0.577382 0.423479 0.56699C0.424991 0.556632 0.427002 0.546545 0.429393 0.536734C0.436697 0.547507 0.442717 0.55289 0.447444 0.55289C0.453015 0.55289 0.460745 0.548274 0.470544 0.539034C0.480384 0.529793 0.488733 0.519301 0.495613 0.507543C0.502487 0.495787 0.505217 0.486269 0.503741 0.478893C0.502644 0.473196 0.49958 0.467435 0.494626 0.461628Z" fill="#ED1C24"/>
</svg>
