<svg width="400" height="89" viewBox="0 0 400 89" fill="none" xmlns="http://www.w3.org/2000/svg">
<path fill-rule="evenodd" clip-rule="evenodd" d="M72.155 27.2017C72.6391 29.6083 73.2053 31.4591 73.8685 32.7608C74.5232 34.0432 75.6397 34.6862 77.21 34.6862L73.0456 44.8754C71.4053 48.8598 69.6667 54.9131 67.7849 62.9914C65.9335 71.1044 65.3449 76.8694 66.0261 80.3239C66.6979 83.7333 68.2767 85.9627 70.7382 87.0319C73.1888 88.0751 75.5403 88.6057 77.815 88.6057C81.2821 88.6057 85.276 88.2175 89.7922 87.3992C94.2955 86.6019 97.6896 85.766 99.9737 84.8998C101.046 84.5013 101.713 83.8612 102.036 83.0189C102.332 82.1859 102.225 80.4486 101.706 77.8197C101.428 76.4282 100.811 75.7321 99.8023 75.7321C98.4137 75.7321 96.8187 76.0403 95.0372 76.6653C93.2493 77.2738 91.4384 77.7706 89.6078 78.1341C87.7692 78.5277 84.8745 78.708 80.9121 78.708C79.9059 78.708 79.2389 78.5906 78.9015 78.3536C78.5742 78.1341 78.3456 77.7197 78.2256 77.125C77.9091 75.5288 78.2256 72.7473 79.1642 68.7585C80.0845 64.759 81.0353 61.4675 81.9789 58.8531L90.0392 58.6508C93.4593 58.5672 95.7381 58.4752 96.8919 58.3355C98.0473 58.204 98.7834 57.9225 99.0934 57.4913C99.4014 57.0419 99.5134 56.2431 99.3905 55.0754C99.2999 53.9934 99.2876 53.1922 99.3281 52.6607C99.3402 52.5269 99.3699 52.3369 99.4164 52.1178C99.4549 51.8586 99.4737 51.648 99.4358 51.4583C99.1328 49.9354 97.1046 49.166 93.3637 49.166C90.4713 49.166 87.2716 49.3636 83.753 49.783C84.741 46.5221 86.1342 42.6218 87.9413 38.0882C88.8228 35.8041 89.5451 34.2782 90.0884 33.4879C90.6295 32.6858 91.3934 32.2035 92.3816 31.9923C93.3707 31.7888 95.2728 31.6923 98.1205 31.6923C98.8975 31.6923 101.406 31.8585 105.676 32.2035C105.833 32.2035 106.127 32.2279 106.562 32.2594C106.984 32.292 107.311 32.3094 107.506 32.3094C108.753 32.3094 109.29 31.9097 109.126 31.0985C109.017 30.5582 108.484 29.4931 107.526 27.918C105.818 25.0928 104.381 23.3103 103.186 22.5382C101.992 21.769 100.271 21.386 98.0275 21.386C93.0428 21.386 87.3739 21.769 81.0189 22.5382C74.6465 23.3108 71.6982 24.8545 72.155 27.2017Z" fill="#ED1C24"/>
<path fill-rule="evenodd" clip-rule="evenodd" d="M309.402 82.473C310.461 80.8512 311.347 79.5841 312.05 78.6806C312.785 77.7506 314.179 75.9938 316.197 73.3911C318.232 70.7994 320.238 68.2393 322.214 65.7429C324.179 63.2487 326.067 60.9287 327.841 58.7578C329.647 56.6007 331.641 54.2566 333.847 51.7327L331.176 63.3358C330.211 67.6864 329.585 70.5767 329.311 72.0017C329.05 73.4223 328.867 74.872 328.767 76.3297C328.67 77.8068 328.726 79.1127 328.95 80.2588C329.238 81.7356 330.076 83.1065 331.408 84.3501C332.758 85.6195 334.217 86.6145 335.814 87.3692C337.42 88.1224 338.638 88.4974 339.494 88.4974C340.644 88.4974 341.382 87.5377 341.679 85.6012C341.97 83.6698 342.314 79.6618 342.67 73.575C343.064 67.5099 343.682 61.5766 344.559 55.8016C345.423 50.0139 346.864 44.0106 348.9 37.7926C353.167 34.1355 355.123 31.4279 354.779 29.6528C354.556 28.5197 353.797 27.1469 352.515 25.5245C351.209 23.9054 349.956 23.0973 348.741 23.0973C347.582 23.0973 345.238 24.7969 341.679 28.2107C338.117 31.6305 334.203 35.7003 329.908 40.4447C325.635 45.1974 321.714 49.6595 318.152 53.8548C314.576 58.0307 312.42 60.6687 311.641 61.7216C312.861 56.0034 313.961 51.3024 314.932 47.6345C315.929 43.9765 316.955 40.44 318.008 36.9929C319.076 33.5558 319.726 31.3102 320.005 30.2582C320.264 29.1967 320.329 28.3371 320.202 27.6839C320.097 27.1464 319.461 26.3481 318.329 25.2946C317.202 24.2369 315.976 23.2818 314.661 22.4235C313.361 21.5681 312.45 21.1303 311.923 21.1303C310.999 21.1303 310.161 22.019 309.399 23.779C308.638 25.5437 307.832 28.1446 307.026 31.5823C306.205 35.0058 305.767 36.8015 305.726 36.947C301.317 53.6619 298.585 64.9158 297.514 70.6979C296.452 76.4732 296.017 79.9036 296.229 81.023C296.405 81.8368 297.514 82.9989 299.614 84.4504C301.685 85.8998 303.391 86.6271 304.732 86.6271C305.602 86.6271 306.326 86.3457 306.92 85.7715C307.499 85.1974 308.326 84.1024 309.402 82.473Z" fill="#ED1C24"/>
<path fill-rule="evenodd" clip-rule="evenodd" d="M398.077 28.6297C396.927 27.616 395.718 26.6848 394.424 25.8415C393.124 24.9968 392.318 24.575 391.982 24.575C390.953 24.575 389.729 26.1683 388.35 29.3124C386.968 32.4752 385.7 35.8909 384.565 39.57C383.418 43.2506 382.621 45.9359 382.197 47.5915L379.012 48.5321C377.979 48.8815 376.471 49.2124 374.497 49.581C372.55 49.9527 371.123 50.1371 370.265 50.1371C369.035 50.1371 368.273 49.3698 367.982 47.8836C367.794 46.9242 368.065 45.1295 368.753 42.5009C369.468 39.8594 370.221 37.5435 371 35.5297C371.623 34.092 372.15 32.8338 372.632 31.8252C373.079 30.7911 373.415 30.0011 373.591 29.4266C373.782 28.8535 373.826 28.3165 373.735 27.8614C373.647 27.4123 373.076 26.6267 371.994 25.5123C370.935 24.4088 369.803 23.3876 368.594 22.4849C367.4 21.5864 366.541 21.1303 366.035 21.1303C365.176 21.1303 363.859 23.0973 362.079 27.0097C360.285 30.9217 358.753 35.145 357.488 39.7106C356.2 44.2565 355.785 47.5583 356.176 49.5627C356.6 51.7198 357.865 54.0013 359.95 56.4575C362.053 58.9116 364.094 60.1358 366.07 60.1358C367.132 60.1358 369.356 59.6878 372.75 58.8057C376.135 57.934 378.718 57.189 380.524 56.5831C380.206 57.614 379.609 60.0819 378.738 63.9476C377.856 67.8146 377.115 71.4488 376.526 74.8262C375.921 78.2103 375.718 80.4259 375.921 81.4536C376.218 82.9486 377.6 84.2536 380.044 85.3848C381.282 85.9604 382.482 86.6224 383.609 87.3636C384.759 88.0898 385.485 88.4648 385.806 88.4648C386.765 88.4648 387.45 87.813 387.815 86.5301C388.177 85.2139 388.444 83.1224 388.624 80.2556C388.794 77.3827 388.888 75.8315 388.921 75.5538C389.732 69.0923 390.477 63.9943 391.138 60.2413C391.8 56.496 392.532 53.2292 393.362 50.4007C394.185 47.5915 395.45 43.7483 397.141 38.9032C397.727 37.1865 398.382 35.5485 399.053 34.0038C399.738 32.4747 400.047 31.5452 399.994 31.2273C399.847 30.5326 399.209 29.6593 398.077 28.6297Z" fill="#ED1C24"/>
<path fill-rule="evenodd" clip-rule="evenodd" d="M67.8391 16.2507C67.9041 16.1004 67.9741 15.8826 68.0323 15.7759C69.4529 11.7413 71.6956 14.4981 72.9185 14.2879C74.8462 13.6918 75.9491 11.9758 76.3556 9.55001C76.6068 8.09762 76.755 5.11698 75.9759 3.87762C75.5071 3.12939 73.8538 1.87739 70.9444 1.32068C64.5384 0.0827213 53.2331 0.0991091 43.4536 1.25232C36.1891 2.12648 26.6616 4.18147 14.017 8.82804C9.69569 10.4162 2.93971 11.2674 0.938745 16.4379C-0.682162 20.6135 -0.0669136 22.8632 1.73744 23.9209C5.71446 26.2447 15.4737 22.793 19.883 21.3996C20.0049 21.4975 20.1337 21.5953 20.3186 21.7381C18.7005 30.8482 15.1257 41.8021 14.0325 51.8875C11.7898 58.4722 7.47035 74.8141 11.0753 81.2777C18.5133 85.7865 23.0524 73.0038 22.4908 72.5732C24.3742 66.9423 30.2702 42.2744 30.9673 35.6012C31.1338 33.9211 31.2758 32.5735 31.537 30.8302C32.04 27.441 32.1023 24.0684 32.6767 20.8841C32.8344 19.9964 33.3461 19.2631 34.0764 18.6708C37.3141 16.0282 44.9106 15.9884 46.2036 15.9884C47.2098 15.7459 50.0089 15.3194 52.2395 14.6077C53.2248 14.2968 53.2334 15.7145 52.9669 17.3584C52.6995 18.9916 52.1642 20.8527 52.0433 21.4291C51.7616 22.7977 51.4878 23.9696 51.1633 25.4127C50.7577 27.2204 49.9192 30.9091 47.9968 39.1397C43.6415 59.0043 40.2741 76.6729 43.9818 86.2624C44.8724 87.5598 47.8924 88.9466 48.766 88.5592C51.001 88.1477 52.6084 87.1792 53.7687 85.8639C55.799 83.5636 56.4325 80.1915 56.6019 76.86C56.9075 70.7594 57.774 61.4161 59.1752 52.1963C60.1052 46.0777 63.0431 32.462 65.4514 23.6039C66.3682 20.2403 67.2402 17.6085 67.8391 16.2507Z" fill="#ED1C24"/>
<path fill-rule="evenodd" clip-rule="evenodd" d="M127.945 88.6048C128.76 88.6048 129.305 87.9936 129.567 86.7762C129.813 85.5595 130.38 81.9921 131.245 76.0903C132.112 70.2082 133.29 63.8705 134.784 57.0663C136.276 50.2763 138.454 42.2277 141.334 32.897C142.425 32.5982 144.495 32.3835 147.514 32.2167C150.535 32.0594 152.763 31.7688 154.196 31.3576C155.623 30.9208 156.193 30.0193 155.912 28.6372C155.724 27.6582 155.147 26.5574 154.187 25.3957C153.222 24.2131 151.913 23.2087 150.239 22.3861C148.58 21.547 146.709 21.1303 144.642 21.1303C144.105 21.1303 143.283 21.1926 142.182 21.3256C140.963 21.4562 139.1 21.5822 136.612 21.7259C134.096 21.8547 132.226 21.9843 130.987 22.0944C123.872 22.6263 118.889 23.2195 116.008 23.8792C113.135 24.5254 111.841 25.6303 112.149 27.2007C113.08 31.9002 115.035 34.2417 118.045 34.2417C118.514 34.2417 121.868 33.9829 128.104 33.4682C127.372 36.2391 126.325 40.3624 124.96 45.8624C123.616 51.3836 122.404 56.5275 121.342 61.314C120.248 66.0952 119.355 70.5376 118.636 74.6247C117.894 78.7324 117.648 81.3259 117.868 82.4356C118.077 83.4856 118.839 84.4618 120.16 85.4304C121.492 86.3689 122.951 87.1321 124.557 87.7227C126.167 88.3145 127.308 88.6048 127.945 88.6048Z" fill="#ED1C24"/>
<path fill-rule="evenodd" clip-rule="evenodd" d="M234.642 53.4198C233.876 57.8904 232.61 62.0484 230.866 65.9552C229.099 69.862 227.166 72.9953 225.06 75.3697C222.945 77.76 221.026 78.9562 219.31 78.9562C218.578 78.9562 217.806 78.4221 216.973 77.3438C216.156 76.2668 215.558 74.8032 215.184 72.9711C214.332 68.6255 214.283 64.0652 215.041 59.3684C215.794 54.6537 217.046 50.3454 218.778 46.4012C220.532 42.4862 222.455 39.32 224.552 36.9067C226.65 34.4955 228.49 33.2947 230.089 33.2947C232.108 33.2947 233.619 35.86 234.642 41.0041C235.394 44.8289 235.396 48.9665 234.642 53.4198ZM243.825 33.1517C242.694 30.5929 241.535 28.6246 240.392 27.241C239.246 25.8752 238.354 25.1837 237.771 25.1837C237.437 25.1837 236.73 25.4501 235.675 26.0147C234.619 26.5579 233.852 26.9938 233.414 27.3005C232.132 25.8082 230.631 24.4074 228.911 23.0889C227.207 21.7793 225.809 21.1303 224.77 21.1303C223.171 21.1303 220.874 22.5125 217.92 25.2899C214.966 28.0697 212.12 31.8196 209.368 36.5126C206.626 41.2312 204.601 46.6289 203.287 52.7245C201.966 58.829 201.951 65.077 203.217 71.4488C203.962 75.2582 205.384 78.4568 207.434 81.0427C209.49 83.6351 211.781 85.5304 214.283 86.7533C216.785 87.9936 219.09 88.6051 221.193 88.6051C226.148 88.6051 230.909 86.3977 235.473 81.9912C240.025 77.5712 243.388 71.7435 245.555 64.5211C247.726 57.3154 248.06 49.8216 246.525 42.0736C245.857 38.7015 244.962 35.7203 243.825 33.1517ZM283.074 40.9415C281.634 42.8583 279.675 44.6389 277.188 46.3001C274.711 47.9801 272.112 49.2948 269.386 50.2369C270.87 42.0294 271.447 37.0165 271.094 35.22C270.893 34.2108 270.21 33.2155 269.062 32.2323C271.39 31.5223 273.99 31.1749 276.864 31.1749C279.136 31.1749 280.957 31.5967 282.334 32.4902C283.692 33.3691 284.497 34.467 284.754 35.785C285.064 37.3253 284.496 39.0432 283.074 40.9415ZM278.197 69.1643C276.619 71.3702 274.388 73.1803 271.521 74.592C268.646 76.0323 265.636 76.73 262.5 76.73C263.831 72.2435 264.862 68.7814 265.611 66.3899C266.336 63.9784 266.978 61.6093 267.491 59.2028C269.465 58.6278 271.28 58.3343 272.945 58.3343C277.049 58.3343 279.384 59.796 279.956 62.6614C280.368 64.7796 279.791 66.9549 278.197 69.1643ZM293.111 46.0903C295.302 42.6662 296.041 39.0912 295.302 35.3967C294.479 31.1846 292.067 27.7635 288.064 25.1162C284.088 22.4652 279.185 21.1308 273.403 21.1308C270.883 21.1308 267.436 21.5175 263.1 22.2873C258.936 23.0041 255.848 23.7317 253.816 24.4551C251.804 25.1841 250.948 26.3247 251.267 27.8914C251.592 29.5409 252.401 31.1846 253.714 32.847C255.015 34.4914 256.742 35.4985 258.906 35.882C258.015 43.5647 256.949 50.096 255.657 55.4898C254.368 60.894 253.145 65.1037 251.971 68.1408C250.802 71.1558 249.83 73.7823 249.055 75.9809C248.273 78.1677 248.037 80.0618 248.357 81.6671C248.445 82.1153 249.102 82.9189 250.333 84.0606C251.565 85.1839 252.885 86.2318 254.286 87.1789C255.69 88.1183 256.703 88.6057 257.336 88.6057C258.27 88.6057 258.972 88.1874 259.46 87.3592C259.958 86.5174 260.493 85.0177 261.065 82.8115C264.426 86.6889 267.685 88.6057 270.866 88.6057C273.887 88.6057 277.17 87.2033 280.696 84.3509C284.214 81.5015 287.05 78.0941 289.188 74.1509C291.322 70.1805 292.095 66.6734 291.49 63.6461C291.173 62.0411 290.412 60.3569 289.215 58.6278C288.022 56.8798 286.314 55.3563 284.089 54.0116C287.9 52.1313 290.907 49.5083 293.111 46.0903ZM187.406 43.2044C185.539 45.63 183.089 47.9121 180.08 50.0677C177.037 52.2019 174.203 53.6895 171.537 54.4863C171.889 51.7207 172.602 47.7736 173.693 42.6218C174.335 39.5568 174.833 37.5215 175.195 36.4953C175.52 35.4567 176.075 34.7311 176.807 34.3088C177.556 33.8755 178.822 33.6017 180.639 33.4711C181.111 33.4117 181.834 33.3694 182.803 33.3694C186.921 33.3694 189.214 34.5967 189.702 37.0591C190.041 38.7418 189.274 40.7991 187.406 43.2044ZM197.852 29.1588C195.861 26.8589 193.179 24.9369 189.742 23.4101C186.336 21.8842 182.433 21.1308 178.022 21.1308C175.498 21.1308 172.843 21.4033 170.036 21.9492C167.221 22.476 164.882 23.2865 163 24.3329C161.115 25.392 160.304 26.5958 160.572 27.9822C161.427 32.2594 162.992 34.9338 165.301 35.9709C163.164 44.9345 161.448 51.8677 160.193 56.7593C158.942 61.6637 157.635 66.5943 156.296 71.5973C154.949 76.5706 154.163 79.6885 153.925 80.8936C153.71 82.1139 153.661 83.1195 153.809 83.8883C154.044 85.0668 154.543 85.8362 155.329 86.2095C156.092 86.5857 157.389 86.9633 159.185 87.358C160.094 87.5657 161.069 87.8218 162.07 88.1404C163.066 88.4451 163.758 88.6042 164.137 88.6042C165.247 88.6042 166.083 87.9927 166.622 86.7921C167.142 85.5909 167.59 83.74 167.956 81.2668C168.313 78.7868 168.785 75.4606 169.393 71.3041C169.998 67.1605 170.802 63.1258 171.758 59.2013C174.68 63.5108 177.088 65.6637 178.979 65.6637C181.207 65.6637 184.299 63.8175 188.219 60.1213C192.155 56.4248 195.495 52.2283 198.247 47.5251C200.996 42.8227 202.088 39.0153 201.498 36.065C201.059 33.7861 199.834 31.4817 197.852 29.1588Z" fill="#ED1C24"/>
</svg>
