<svg width="100" height="26" viewBox="0 0 100 26" fill="none" xmlns="http://www.w3.org/2000/svg">
<g clip-path="url(#clip0_1_281)">
<path d="M7.204 10.58C7.34 10.92 7.3 11.358 7.23 11.624C7.118 12.096 6.799 12.578 5.852 12.578C4.972 12.578 4.444 12.063 4.444 11.292L4.441 9.932H0.654V11.012C0.654 14.17 3.132 15.117 5.786 15.117C8.333 15.117 10.426 14.249 10.771 11.887C10.937 10.667 10.814 9.877 10.754 9.577C10.412 7.871 8.494 6.857 6.85 5.987C5.638 5.347 4.577 4.785 4.407 4.084C4.34916 3.84093 4.34371 3.58834 4.391 3.343C4.487 2.895 4.793 2.393 5.683 2.393C6.506 2.393 6.995 2.904 6.995 3.675V4.549H10.515V3.559C10.515 0.489 7.75 0 5.752 0C3.249 0 1.2 0.83 0.825 3.137C0.722 3.768 0.705 4.327 0.851 5.041C1.201 6.686 2.988 7.664 4.591 8.541C5.793 9.197 6.891 9.798 7.205 10.581L7.204 10.58ZM53.065 10.55C53.191 10.893 53.155 11.328 53.091 11.584C52.981 12.056 52.666 12.528 51.733 12.528C50.853 12.528 50.325 12.023 50.325 11.262V9.906H46.578V10.986C46.578 14.106 49.023 15.047 51.653 15.047C54.173 15.047 56.253 14.187 56.589 11.853C56.749 10.647 56.629 9.859 56.565 9.563C56.229 7.878 54.333 6.871 52.707 6.008C51.509 5.372 50.459 4.814 50.288 4.121C50.2358 3.88155 50.2314 3.63416 50.275 3.393C50.375 2.941 50.68 2.449 51.554 2.449C52.367 2.449 52.846 2.957 52.846 3.719V4.583H56.326V3.595C56.326 0.555 53.599 0.076 51.626 0.076C49.142 0.076 47.113 0.897 46.741 3.186C46.641 3.808 46.618 4.363 46.774 5.068C47.12 6.698 48.891 7.665 50.48 8.532C51.67 9.182 52.758 9.776 53.065 10.551V10.55ZM82.325 11.81L82.133 0.442H85.62V14.412H80.598L77.031 2.682L77.234 14.412H73.769V0.442H79.004L82.325 11.81V11.81ZM18.925 1.489L16.955 14.562H13.146L15.756 0.442H22.03L24.631 14.562H20.848L18.925 1.489ZM39.504 1.489L37.076 14.562H33.496L31.07 1.489L30.974 14.562H27.446L27.752 0.442H33.508L35.288 11.478L37.069 0.442H42.819L43.134 14.562H39.6L39.504 1.489V1.489ZM64.901 12.449C65.885 12.449 66.184 11.774 66.257 11.425C66.287 11.275 66.297 11.069 66.287 10.89V0.442H69.857V10.564C69.874 10.824 69.844 11.355 69.827 11.498C69.577 14.133 67.502 14.991 64.905 14.991C62.307 14.991 60.235 14.133 59.986 11.498C59.9639 11.1872 59.9539 10.8756 59.956 10.564V0.442H63.523V10.886C63.52 11.066 63.523 11.272 63.56 11.422C63.623 11.774 63.928 12.449 64.901 12.449V12.449ZM94.319 12.306C95.345 12.306 95.707 11.658 95.763 11.276C95.793 11.116 95.803 10.92 95.8 10.737V8.693H94.355V6.633H99.347V10.418C99.344 10.674 99.337 10.877 99.294 11.345C99.058 13.921 96.843 14.835 94.332 14.835C91.838 14.835 89.606 13.921 89.373 11.345C89.3355 11.0374 89.3168 10.7279 89.317 10.418V4.483C89.317 4.227 89.36 3.792 89.387 3.549C89.698 0.911 91.834 0.063 94.341 0.063C96.841 0.063 99.021 0.9 99.29 3.549C99.333 4.001 99.316 4.483 99.316 4.483V4.948H95.762V4.164C95.762 4.164 95.759 3.822 95.716 3.619C95.656 3.309 95.387 2.595 94.308 2.595C93.278 2.595 92.976 3.273 92.903 3.619C92.853 3.809 92.84 4.057 92.84 4.287V10.737C92.84 10.92 92.85 11.116 92.876 11.275C92.943 11.658 93.298 12.305 94.318 12.305L94.319 12.306ZM53.521 18.623C53.763 18.835 54.095 18.942 54.519 18.942C54.93 18.942 55.259 18.835 55.507 18.623C55.76 18.405 55.91 18.09 55.957 17.678H55.471C55.371 18.12 55.057 18.341 54.527 18.341C54.251 18.341 54.037 18.288 53.883 18.181C53.736 18.07 53.639 17.902 53.592 17.678H53.089C53.136 18.096 53.28 18.411 53.521 18.623V18.623ZM56.027 19.498L52.807 24.613V19.498H52.074V25.894H52.78L56 20.77V25.894H56.741V19.498H56.026H56.027Z" fill="#0F218B"/>
<path fill-rule="evenodd" clip-rule="evenodd" d="M6.114 24.419C6.555 24.001 6.776 23.417 6.776 22.669C6.776 21.927 6.556 21.35 6.114 20.938C5.679 20.52 5.058 20.288 4.252 20.24V19.41H3.555V20.24C2.755 20.299 2.14 20.535 1.71 20.947C1.28 21.359 1.066 21.933 1.066 22.67C1.066 23.411 1.281 23.989 1.71 24.4C2.14 24.813 2.755 25.046 3.555 25.099V25.982H4.252V25.108C5.058 25.06 5.679 24.831 6.114 24.418V24.419ZM5.576 23.951C5.264 24.251 4.823 24.425 4.252 24.471V20.876C4.822 20.923 5.264 21.103 5.576 21.415C5.887 21.721 6.043 22.142 6.043 22.678C6.043 23.22 5.887 23.644 5.576 23.951V23.951ZM2.249 23.941C1.943 23.635 1.789 23.214 1.789 22.678C1.789 22.142 1.943 21.724 2.249 21.424C2.554 21.118 2.989 20.935 3.555 20.876V24.463C2.99 24.416 2.555 24.243 2.249 23.942V23.941Z" fill="#0F218B"/>
<path d="M8.823 24.613L12.044 19.498H12.759V25.894H12.018V20.77L8.797 25.894H8.09V19.498H8.822V24.613H8.823Z" fill="#0F218B"/>
<path fill-rule="evenodd" clip-rule="evenodd" d="M18.645 21.556C18.645 22.204 18.465 22.711 18.107 23.076C17.748 23.441 17.248 23.623 16.607 23.623H15.168V25.893H14.436V19.498H16.642C17.272 19.498 17.762 19.681 18.116 20.046C18.469 20.405 18.646 20.909 18.646 21.556H18.645ZM17.878 21.556C17.878 21.103 17.768 20.758 17.551 20.523C17.339 20.282 17.024 20.161 16.607 20.161H15.168V22.961H16.642C17.048 22.961 17.354 22.843 17.56 22.608C17.772 22.366 17.878 22.016 17.878 21.556Z" fill="#0F218B"/>
<path d="M24.76 20.664L22.96 24.569H22.193L20.4 20.664V25.894H19.694V19.498H20.577L22.589 23.862L24.583 19.498H25.475V25.894H24.76V20.664V20.664ZM27.152 19.498H30.894V20.161H27.885V22.29H30.135V22.961H27.885V25.231H31V25.894H27.152V19.498ZM35.951 22.979H32.915V25.894H32.183V19.498H32.915V22.316H35.951V19.498H36.683V25.894H35.951V22.979ZM42.137 22.979H39.102V25.894H38.369V19.498H39.102V22.316H42.137V19.498H42.87V25.894H42.137V22.979Z" fill="#0F218B"/>
<path fill-rule="evenodd" clip-rule="evenodd" d="M44.555 19.498H45.288V21.928H46.664C47.335 21.928 47.853 22.098 48.217 22.44C48.582 22.781 48.765 23.273 48.765 23.915C48.765 24.545 48.579 25.035 48.209 25.381C47.844 25.723 47.341 25.894 46.699 25.894H44.555V19.498V19.498ZM45.288 25.231H46.664C47.094 25.231 47.424 25.122 47.653 24.904C47.883 24.681 47.997 24.351 47.997 23.915C47.997 23.474 47.885 23.144 47.661 22.925C47.438 22.702 47.121 22.59 46.708 22.59H45.288V25.231V25.231Z" fill="#0F218B"/>
<path d="M50.397 25.894V19.498H49.665V25.894H50.397ZM65.488 20.664L63.688 24.569H62.92L61.128 20.664V25.894H60.422V19.498H61.305L63.317 23.862L65.311 19.498H66.203V25.894H65.488V20.664Z" fill="#0F218B"/>
<path fill-rule="evenodd" clip-rule="evenodd" d="M71.25 24.198H68.63L68.056 25.894H67.271L69.538 19.498H70.35L72.618 25.894H71.824L71.251 24.198H71.25ZM68.832 23.544H71.03L69.927 20.294L68.832 23.544Z" fill="#0F218B"/>
<path d="M74.418 25.894H73.686V19.498H77.269V20.161H74.419V25.894H74.418Z" fill="#0F218B"/>
<path fill-rule="evenodd" clip-rule="evenodd" d="M80.975 24.198H78.355L77.781 25.894H76.996L79.263 19.498H80.075L82.343 25.894H81.549L80.975 24.198ZM78.557 23.544H80.755L79.652 20.294L78.557 23.544Z" fill="#0F218B"/>
<path d="M85.82 22.528C86.597 22.77 86.985 23.279 86.985 24.056C86.985 24.686 86.761 25.169 86.315 25.506C85.867 25.835 85.276 26 84.541 26C83.805 26 83.185 25.853 82.679 25.558L82.979 24.958C83.479 25.198 83.994 25.32 84.523 25.32C85.064 25.32 85.482 25.214 85.776 25.002C86.07 24.784 86.217 24.466 86.217 24.048C86.217 23.647 86.085 23.361 85.82 23.191C85.555 23.014 85.203 22.926 84.761 22.926H83.755V22.281H84.691C85.108 22.281 85.426 22.183 85.644 21.989C85.867 21.795 85.979 21.515 85.979 21.15C85.979 20.78 85.853 20.502 85.599 20.32C85.353 20.137 85.02 20.046 84.602 20.046C84.167 20.046 83.696 20.158 83.19 20.381L82.935 19.799C83.4596 19.5217 84.0447 19.3788 84.638 19.383C85.273 19.383 85.782 19.528 86.164 19.816C86.547 20.105 86.738 20.526 86.738 21.08C86.738 21.769 86.432 22.251 85.82 22.528V22.528ZM88.97 24.613L92.192 19.498H92.907V25.894H92.165V20.77L88.945 25.894H88.238V19.498H88.971V24.613H88.97ZM98.352 22.979H95.316V25.894H94.584V19.498H95.316V22.316H98.352V19.498H99.084V25.894H98.352V22.979Z" fill="#0F218B"/>
</g>
<defs>
<clipPath id="clip0_1_281">
<rect width="100" height="26" fill="white"/>
</clipPath>
</defs>
</svg>
