<svg width="93" height="66" viewBox="0 0 93 66" fill="none" xmlns="http://www.w3.org/2000/svg">
<path d="M11.6963 60.0762C12.442 59.966 13.2011 59.9834 13.941 60.1278H13.9557C14.7212 60.2308 15.4424 60.3338 16.1637 60.1646V56.411H17.4811V65.1546H16.1564V61.4305C15.4179 61.5386 14.6664 61.5212 13.9337 61.3789H13.9116C13.1839 61.2327 12.4357 61.2202 11.7036 61.3422V65.1546H10.3936V56.4037H11.6963V60.0836V60.0762ZM25.5329 57.6328H22.3387V58.3687C22.3387 61.3054 22.0443 63.0128 21.5585 63.9991C21.3156 64.4922 21.0213 64.8087 20.6901 65C20.3589 65.1914 20.0056 65.2503 19.6597 65.2503C19.2696 65.2503 18.7397 65.1251 18.5115 65.0295L18.3643 64.9706L18.6366 63.8298L18.8427 63.9255C18.8869 63.9476 18.9899 63.9696 19.1224 63.9991C19.2475 64.0138 19.3874 64.0285 19.5125 64.0285C19.6523 64.0285 19.7995 64.0064 19.9541 63.9108C20.1817 63.7356 20.3531 63.4977 20.4472 63.2263C20.7857 62.4535 21.0581 60.9594 21.0581 58.1112V56.4037H26.8503V65.1546H25.5329V57.6328Z" fill="white"/>
<path fill-rule="evenodd" clip-rule="evenodd" d="M30.2726 62.9393H34.6003L35.5791 65.1472H36.9996L33.0179 56.3448H31.8918L27.9101 65.1546H29.2791L30.2726 62.9393ZM30.8099 61.7249H34.063L32.4438 58.0817L30.8099 61.7249Z" fill="white"/>
<path d="M39.3695 56.4037H38.0668V65.1546H39.2591L43.9694 58.5896V65.1546H45.2795V56.4037H44.1019L39.3695 62.9761V56.4037ZM40.8415 54.2472L40.7973 54.0779L39.8037 54.2767L39.8332 54.4533C39.8976 54.909 40.126 55.3256 40.4755 55.625C40.8251 55.9245 41.2718 56.0862 41.732 56.0798C42.7403 56.0798 43.4616 55.388 43.6235 54.4533L43.653 54.2767L42.6594 54.0779L42.6152 54.2472C42.549 54.4754 42.4459 54.652 42.3061 54.7624C42.1663 54.8728 41.9823 54.9464 41.732 54.9464C41.4744 54.9464 41.2904 54.8728 41.1432 54.7624C40.9953 54.6244 40.8926 54.4448 40.8488 54.2472H40.8415ZM50.7258 60.1278C50.0046 60.0247 49.2538 59.9217 48.4811 60.0763V56.4037H47.171V65.1546H48.4811V61.3422C49.213 61.2185 49.9616 61.231 50.689 61.379H50.7111C51.4324 61.482 52.1831 61.585 52.9485 61.4305V65.1546H54.2659V56.4037H52.9485V60.1646C52.2272 60.3339 51.506 60.2382 50.7405 60.1278H50.7258Z" fill="white"/>
<path fill-rule="evenodd" clip-rule="evenodd" d="M4.46884 56.2638C3.87704 56.2588 3.29022 56.3724 2.74304 56.5979C2.19586 56.8235 1.69941 57.1563 1.28298 57.5768C0.866559 57.9974 0.538606 58.4971 0.318488 59.0465C0.0983705 59.5958 -0.00945183 60.1837 0.00138356 60.7755C0.00138356 63.2042 1.78248 65.3018 4.44676 65.3018C5.03955 65.3059 5.62715 65.1911 6.17486 64.9643C6.72257 64.7375 7.21929 64.4033 7.63572 63.9814C8.05214 63.5595 8.37981 63.0585 8.5994 62.5078C8.81899 61.9572 8.92604 61.3681 8.91422 60.7755C8.91422 58.3467 7.12577 56.2638 4.46884 56.2638ZM4.44676 57.5077C2.64359 57.5077 1.35561 58.9428 1.35561 60.7755C1.35561 62.5934 2.66567 64.0506 4.46884 64.0506C6.27202 64.0506 7.56001 62.6154 7.56001 60.7755C7.56001 58.9649 6.23522 57.5077 4.44676 57.5077Z" fill="white"/>
<path d="M4.42468 43.0013C3.83475 43.0001 3.25056 43.1172 2.70661 43.3455C2.16266 43.5739 1.66998 43.9089 1.25766 44.3308C0.845341 44.7527 0.52174 45.253 0.305969 45.8021C0.0901985 46.3511 -0.0133691 46.9379 0.00138051 47.5276C0.00138051 50.0521 1.85608 52.0466 4.38788 52.0466C5.97762 52.0466 6.97121 51.4799 7.87648 50.5746L8.0016 50.4495L7.13313 49.5222L7.00065 49.6473C6.2205 50.3906 5.50659 50.8101 4.41732 50.8101C2.68038 50.8101 1.35561 49.375 1.35561 47.5276C1.35561 45.6656 2.66566 44.2525 4.41732 44.2525C5.49187 44.2525 6.23522 44.6941 6.92705 45.3564L7.05953 45.4816L7.93535 44.5395L7.80288 44.4144C7.3707 43.9547 6.84648 43.5912 6.2644 43.3478C5.68232 43.1043 5.05546 42.9862 4.42468 43.0013Z" fill="white"/>
<path fill-rule="evenodd" clip-rule="evenodd" d="M10.6953 49.6914H15.0229L16.0092 51.9068H17.4296L13.4332 43.0896H12.3071L8.32544 51.9068H9.69438L10.6953 49.6914ZM12.8591 44.8339L11.2326 48.4697H14.4857L12.8591 44.8265V44.8339Z" fill="white"/>
<path d="M21.9854 46.8873C21.2432 46.7411 20.4814 46.7237 19.7333 46.8358V43.1558H18.4232V51.9141H19.7333V48.0943C20.4654 47.972 21.2136 47.9845 21.9413 48.1311H21.956C22.6772 48.2342 23.428 48.3372 24.1934 48.1826V51.8994H25.5182V43.1632H24.1934V46.9241C23.4795 47.086 22.7582 46.9903 21.9854 46.8873ZM33.6877 43.1485H26.7178V44.3776H29.5367V51.9068H30.8615V44.3776H33.6877V43.1485ZM36.2121 46.8284V44.3776H41.3272V43.1485H34.8873V51.9068H41.3861V50.6776H36.2121V48.0649C36.9002 47.9484 37.604 47.9609 38.2876 48.1017H38.3097C39.0604 48.2121 39.8553 48.3225 40.6501 48.1017L40.79 48.0649V46.8137L40.5544 46.8873C39.8261 47.0399 39.0738 47.0374 38.3465 46.8799H38.3244C37.6286 46.7405 36.9139 46.7231 36.2121 46.8284ZM43.8664 43.1485H42.284L45.5297 47.4467L42.1736 51.9068H43.7192L46.3172 48.4255L48.9079 51.9068H50.4903L47.1342 47.4319L50.3725 43.1485H48.8123L46.354 46.4531L43.8664 43.1485ZM54.9651 46.8873C54.2229 46.7411 53.4611 46.7237 52.713 46.8358V43.1558H51.3956V51.9141H52.7056V48.0943C53.4402 47.9714 54.1909 47.9839 54.921 48.1311H54.9357C55.6754 48.2774 56.4348 48.2948 57.1805 48.1826V51.8994H58.4905V43.1632H57.1805V46.9241C56.4592 47.086 55.7379 46.9903 54.9725 46.8873H54.9651ZM61.6847 43.1485H60.3747V51.9068H61.5743L66.2994 45.327V51.9068H67.6021V43.1485H66.4245L61.6847 49.7282V43.1485ZM70.7963 49.5442L72.3934 47.9398L75.5434 51.9141H77.192L73.3134 47.0124L77.0964 43.1485H75.3594L70.7963 47.8882V43.1485H69.4862V51.9068H70.7963V49.5442Z" fill="white"/>
<path fill-rule="evenodd" clip-rule="evenodd" d="M79.871 49.6914H84.1987L85.1849 51.9068H86.598L82.6163 43.0896H81.4902L77.5012 51.9068H78.8848L79.871 49.6914ZM80.401 48.4697H83.6614L82.0422 44.8265L80.401 48.4697Z" fill="white"/>
<path d="M0.000365826 21.7475C0.350366 17.2775 1.95037 13.4875 6.18037 11.3675C10.6904 9.10751 14.6804 11.7875 14.3904 16.8075C14.1732 20.3047 13.0196 23.6792 11.0504 26.5775C9.75037 28.5375 8.07037 30.0475 5.47037 29.6375C2.84037 29.2375 1.39037 27.4575 0.550366 25.0875C0.176647 24.014 -0.00940574 22.8842 0.000365826 21.7475Z" fill="#FF8200"/>
<path d="M53.8704 29.9275C50.3104 29.7575 46.8704 29.6175 43.6704 28.1275C39.1004 25.9875 37.4704 21.5475 39.6004 16.9675C41.6504 12.5575 45.2504 9.66751 49.4004 7.51751C60.0304 1.98751 71.1704 0.0575137 82.8804 3.43751C86.0804 4.35751 88.9504 5.93751 90.9004 8.78751C92.0046 10.2692 92.5367 12.0998 92.3989 13.9426C92.2611 15.7854 91.4627 17.5165 90.1504 18.8175C87.1704 22.0375 83.3104 23.7675 79.2804 25.1775C71.095 28.0075 62.5353 29.6082 53.8804 29.9275H53.8704Z" fill="#0096D1"/>
<path d="M16.7004 24.1575C16.8004 20.3275 18.0104 17.0175 19.8004 13.9075C22.9304 8.50751 26.9604 3.97751 32.7004 1.20751C34.0334 0.509626 35.4986 0.100728 37.0004 0.0075139C40.6104 -0.152486 42.8004 2.25751 42.2904 5.82751C42.0604 7.42751 41.5504 8.95751 40.8204 10.4075C37.7561 16.4663 33.5998 21.9075 28.5604 26.4575C27.1999 27.7637 25.6054 28.8019 23.8604 29.5175C20.2404 30.9175 17.3804 29.2475 16.8304 25.4175L16.6904 24.1575H16.7004Z" fill="#A0C100"/>
</svg>
