<svg width="209" height="30" viewBox="0 0 209 30" fill="none" xmlns="http://www.w3.org/2000/svg">
<path d="M0.000365732 21.7419C0.350276 17.2731 1.94986 13.484 6.17878 11.3646C10.6876 9.10517 14.6766 11.7845 14.3867 16.8032C14.1695 20.2995 13.0162 23.6731 11.0475 26.5707C9.74786 28.5302 8.06829 30.0398 5.46896 29.6299C2.83964 29.23 1.39001 27.4505 0.550224 25.0811C0.176601 24.0078 -0.00940332 22.8783 0.000365732 21.7419V21.7419Z" fill="#FF8200"/>
<path d="M53.8565 29.9198C50.2974 29.7499 46.8583 29.6099 43.6591 28.1203C39.0903 25.9808 37.4607 21.542 39.5902 16.9632C41.6397 12.5543 45.2387 9.66503 49.3877 7.51559C60.0149 1.98701 71.1521 0.0575023 82.859 3.43663C86.0582 4.3564 88.9275 5.93599 90.877 8.78526C91.9809 10.2666 92.5129 12.0967 92.3752 13.939C92.2374 15.7813 91.4391 17.512 90.1272 18.8127C87.1479 22.0319 83.2889 23.7614 79.26 25.171C71.0767 28.0003 62.5192 29.6006 53.8665 29.9198H53.8565Z" fill="#0096D1"/>
<path d="M16.6961 24.1513C16.7961 20.3223 18.0057 17.0131 19.7953 13.9039C22.9245 8.50533 26.9534 3.97649 32.692 1.2072C34.0246 0.509495 35.4895 0.100702 36.9909 0.00751197C40.5999 -0.152447 42.7894 2.25693 42.2795 5.82602C42.0496 7.4256 41.5397 8.95521 40.8099 10.4048C37.7464 16.4621 33.5912 21.9019 28.553 26.4507C27.1929 27.7566 25.5988 28.7945 23.8542 29.5099C20.2352 30.9096 17.3759 29.24 16.826 25.411L16.6861 24.1513H16.6961Z" fill="#A0C100"/>
<path d="M118.16 23.6735C119.063 23.54 119.982 23.5611 120.878 23.7359H120.896C121.822 23.8607 122.696 23.9854 123.569 23.7805V19.2362H125.164V29.8217H123.56V25.313C122.666 25.444 121.756 25.4229 120.869 25.2507H120.842C119.961 25.0735 119.055 25.0585 118.169 25.2061V29.8217H116.583V19.2273H118.16V23.6824V23.6735ZM134.912 20.7153H131.045V21.6063C131.045 25.1616 130.688 27.2288 130.1 28.4227C129.806 29.0197 129.45 29.4029 129.049 29.6346C128.648 29.8662 128.22 29.9375 127.801 29.9375C127.329 29.9375 126.687 29.786 126.411 29.6702L126.233 29.5989L126.563 28.2178L126.812 28.3336C126.866 28.3604 126.99 28.3871 127.151 28.4227C127.302 28.4406 127.472 28.4584 127.623 28.4584C127.792 28.4584 127.97 28.4317 128.158 28.3158C128.433 28.1038 128.641 27.8157 128.755 27.4872C129.164 26.5516 129.494 24.7428 129.494 21.2945V19.2273H136.507V29.8217H134.912V20.7153Z" fill="#1E0602"/>
<path fill-rule="evenodd" clip-rule="evenodd" d="M140.65 27.1397H145.889L147.074 29.8128H148.794L143.973 19.156H142.61L137.79 29.8217H139.447L140.65 27.1397V27.1397ZM141.3 25.6695H145.239L143.278 21.2588L141.3 25.6695Z" fill="#1E0602"/>
<path d="M151.663 19.2273H150.086V29.8217H151.529L157.232 21.8736V29.8217H158.818V19.2273H157.392L151.663 27.1842V19.2273ZM153.445 16.6165L153.392 16.4116L152.189 16.6522L152.224 16.866C152.302 17.4178 152.579 17.9221 153.002 18.2846C153.425 18.6471 153.966 18.8429 154.523 18.8352C155.744 18.8352 156.617 17.9976 156.813 16.866L156.849 16.6522L155.646 16.4116L155.593 16.6165C155.512 16.8928 155.388 17.1066 155.218 17.2403C155.049 17.3739 154.826 17.463 154.523 17.463C154.211 17.463 153.989 17.3739 153.81 17.2403C153.631 17.0732 153.507 16.8557 153.454 16.6165H153.445ZM165.412 23.7359C164.539 23.6112 163.63 23.4864 162.694 23.6735V19.2273H161.108V29.8217H162.694V25.2061C163.58 25.0564 164.486 25.0715 165.367 25.2507H165.394C166.267 25.3754 167.176 25.5002 168.103 25.313V29.8217H169.698V19.2273H168.103V23.7805C167.229 23.9854 166.356 23.8696 165.43 23.7359H165.412V23.7359Z" fill="#1E0602"/>
<path fill-rule="evenodd" clip-rule="evenodd" d="M109.41 19.058C108.694 19.0519 107.983 19.1894 107.321 19.4625C106.658 19.7355 106.057 20.1384 105.553 20.6476C105.049 21.1567 104.652 21.7617 104.386 22.4268C104.119 23.0919 103.989 23.8036 104.002 24.52C104.002 27.4604 106.158 29.9999 109.384 29.9999C110.101 30.0048 110.813 29.8659 111.476 29.5913C112.139 29.3168 112.74 28.9121 113.244 28.4014C113.748 27.8906 114.145 27.2839 114.411 26.6173C114.677 25.9507 114.806 25.2376 114.792 24.52C114.792 21.5796 112.627 19.058 109.41 19.058ZM109.384 20.5638C107.201 20.5638 105.641 22.3013 105.641 24.52C105.641 26.7209 107.227 28.4851 109.41 28.4851C111.593 28.4851 113.153 26.7476 113.153 24.52C113.153 22.3281 111.549 20.5638 109.384 20.5638Z" fill="#1E0602"/>
<path d="M109.357 3.00155C108.643 3.00014 107.935 3.14184 107.277 3.4183C106.618 3.69476 106.022 4.10037 105.523 4.61118C105.023 5.12198 104.632 5.72763 104.37 6.39236C104.109 7.05709 103.984 7.76742 104.002 8.48141C104.002 11.5377 106.247 13.9524 109.312 13.9524C111.237 13.9524 112.44 13.2663 113.536 12.1703L113.687 12.0188L112.636 10.8961L112.475 11.0476C111.531 11.9475 110.667 12.4554 109.348 12.4554C107.245 12.4554 105.641 10.7179 105.641 8.48141C105.641 6.22709 107.227 4.51631 109.348 4.51631C110.649 4.51631 111.549 5.05093 112.386 5.85286L112.547 6.00433L113.607 4.86381L113.447 4.71234C112.923 4.1558 112.289 3.71579 111.584 3.42101C110.879 3.12624 110.12 2.98331 109.357 3.00155V3.00155Z" fill="#1E0602"/>
<path fill-rule="evenodd" clip-rule="evenodd" d="M116.948 11.101H122.188L123.382 13.7831H125.101L120.263 3.10847H118.9L114.079 13.7831H115.737L116.948 11.101ZM119.568 5.22022L117.599 9.62193H121.537L119.568 5.21131V5.22022Z" fill="#1E0602"/>
<path d="M130.617 7.70621C129.718 7.52919 128.796 7.50809 127.89 7.64384V3.18867H126.304V13.792H127.89V9.1675C128.777 9.01944 129.683 9.03454 130.563 9.21206H130.581C131.454 9.3368 132.363 9.46155 133.29 9.27443V13.7741H134.894V3.19758H133.29V7.75076C132.426 7.94679 131.552 7.83095 130.617 7.70621ZM144.784 3.17976H136.346V4.66778H139.759V13.7831H141.363V4.66778H144.784V3.17976V3.17976ZM147.841 7.63493V4.66778H154.033V3.17976H146.237V13.7831H154.105V12.295H147.841V9.13186C148.674 8.99085 149.526 9.00596 150.353 9.17641H150.38C151.289 9.31007 152.251 9.44372 153.213 9.17641L153.383 9.13186V7.6171L153.098 7.70621C152.216 7.89096 151.305 7.88793 150.425 7.6973H150.398C149.555 7.52849 148.69 7.50738 147.841 7.63493V7.63493ZM157.107 3.17976H155.192L159.121 8.38339L155.058 13.7831H156.929L160.074 9.56847L163.211 13.7831H165.127L161.063 8.36557L164.984 3.17976H163.095L160.119 7.1805L157.107 3.17976V3.17976ZM170.544 7.70621C169.646 7.52919 168.723 7.50809 167.818 7.64384V3.18867H166.223V13.792H167.809V9.1675C168.698 9.01875 169.607 9.03385 170.491 9.21206H170.508C171.404 9.38911 172.323 9.41021 173.226 9.27443V13.7741H174.812V3.19758H173.226V7.75076C172.353 7.94679 171.48 7.83095 170.553 7.70621H170.544V7.70621ZM178.679 3.17976H177.093V13.7831H178.546L184.266 5.81722V13.7831H185.843V3.17976H184.417L178.679 11.1456V3.17976V3.17976ZM189.71 10.9228L191.644 8.98039L195.457 13.792H197.453L192.758 7.85768L197.337 3.17976H195.235L189.71 8.91801V3.17976H188.124V13.7831H189.71V10.9228V10.9228Z" fill="#1E0602"/>
<path fill-rule="evenodd" clip-rule="evenodd" d="M200.697 11.101H205.936L207.13 13.7831H208.841L204.02 3.10847H202.657L197.828 13.7831H199.503L200.697 11.101ZM201.338 9.62193H205.286L203.325 5.21131L201.338 9.62193V9.62193Z" fill="#1E0602"/>
</svg>
