<svg width="645" height="176" viewBox="0 0 645 176" fill="none" xmlns="http://www.w3.org/2000/svg">
<g clip-path="url(#clip0_8_11)">
<rect width="645" height="176" fill="#0921FF"/>
<mask id="mask0_8_11" style="mask-type:luminance" maskUnits="userSpaceOnUse" x="0" y="0" width="645" height="176">
<path d="M645 0H0V176H645V0Z" fill="white"/>
</mask>
<g mask="url(#mask0_8_11)">
<path fill-rule="evenodd" clip-rule="evenodd" d="M765.203 45.7593C730.82 43.224 700.806 39.6993 662.864 39.6993H662.702C597.98 39.7612 559.958 48.4182 493.133 48.4182H492.89C423.396 48.4182 383.351 39.6993 323.08 39.6993H322.917C258.196 39.7612 220.173 48.4182 153.349 48.4182H152.945C83.3693 48.4182 43.3233 39.6993 -16.9481 39.6993H-17.1098C-57.5603 39.6993 -86.4421 43.1003 -119.45 45.6356V129.485C-86.7656 126.95 -56.9941 123.611 -17.1098 123.611H-16.9481C43.3233 123.611 83.3693 132.33 152.945 132.33H153.349C220.173 132.33 258.277 123.673 322.917 123.611H323.08C383.351 123.611 423.396 132.33 492.89 132.33H493.133C559.958 132.33 597.98 123.673 662.702 123.611H662.864C700.887 123.611 730.82 127.074 765.203 129.671V45.7593Z" fill="white"/>
<path fill-rule="evenodd" clip-rule="evenodd" d="M176.81 72.7817L176.324 73.029L182.149 78.9035L182.634 78.5943C185.952 76.4919 191.615 75.0696 200.028 75.0696C211.678 75.0696 218.07 77.7904 220.173 81.2532H199.543V87.8697H219.445C216.775 90.8378 210.546 93.0639 200.11 93.0639C191.696 93.0639 186.032 91.6417 182.716 89.5393L182.23 89.2301L176.405 95.1663L176.891 95.4137C182.069 98.0726 189.754 99.6804 200.028 99.6804C210.303 99.6804 218.474 97.949 223.733 95.1663C228.991 92.3219 231.499 88.4262 231.499 84.0977C231.499 79.7692 228.911 75.8735 223.733 73.029C218.556 70.2464 210.707 68.515 200.11 68.515C189.431 68.515 182.069 70.1227 176.81 72.7817ZM102.785 98.32L102.947 97.8253C106.183 88.3644 110.471 81.3769 116.053 76.7392C121.635 72.1015 128.512 69.8136 136.845 69.8136C145.177 69.8136 152.054 72.0397 157.636 76.7392C163.219 81.3769 167.506 88.3644 170.742 97.8253L170.904 98.32H160.307L160.226 98.0108C156.828 88.8591 152.783 83.7267 148.737 80.8822C144.692 78.0378 140.567 77.4812 136.845 77.4812C133.124 77.4812 128.997 78.0996 124.952 80.8822C120.907 83.7267 116.862 88.8591 113.464 98.0108L113.384 98.32H102.785ZM414.659 98.32L414.821 97.8253C418.057 88.3644 422.344 81.3769 427.927 76.7392C433.509 72.1015 440.386 69.8136 448.718 69.8136C457.051 69.8136 463.928 72.0397 469.51 76.7392C475.093 81.3769 479.38 88.3644 482.616 97.8253L482.778 98.32H472.341L472.26 98.0108C468.863 88.8591 464.817 83.7267 460.773 80.8822C456.728 78.0378 452.602 77.4812 448.881 77.4812C445.159 77.4812 441.033 78.0996 436.988 80.8822C432.943 83.7267 428.897 88.8591 425.5 98.0108L425.419 98.32H414.659ZM234.169 76.3682V69.7517H289.343V76.3682H267.014V98.32H256.498V76.3682H234.169ZM397.75 81.3151C397.669 80.1402 397.427 79.2745 397.023 78.5943C396.538 77.8522 395.89 77.4194 395.163 77.0484C394.353 76.7392 393.382 76.5537 392.33 76.4919C391.278 76.43 390.065 76.43 388.932 76.43H357.785V69.8754H389.499C391.684 69.8754 393.867 69.8754 395.971 70.0609C398.236 70.2464 400.34 70.6174 402.2 71.3595C404.06 72.1015 405.598 73.2764 406.731 74.946C407.783 76.6155 408.43 78.8416 408.43 81.7479V98.3818H372.509C367.817 98.3818 363.045 98.3818 359.404 97.3306C357.543 96.7741 356.006 95.9702 354.873 94.7953C353.741 93.5586 353.175 91.9509 353.175 89.8484C353.175 87.746 353.821 86.1383 354.873 84.9016C356.006 83.6648 357.543 82.861 359.404 82.3663C363.045 81.3151 367.817 81.3151 372.509 81.3151H397.75ZM372.429 91.7654H397.75V87.9315H372.429C370.082 87.9315 367.736 87.9315 366.038 88.2407C365.228 88.3644 364.582 88.6117 364.176 88.8591C363.772 89.1064 363.53 89.4156 363.53 89.9103C363.53 90.405 363.772 90.7141 364.176 90.9615C364.582 91.2088 365.228 91.4562 366.038 91.5798C367.736 91.7653 370.002 91.7654 372.429 91.7654ZM524.603 81.3151H499.847V69.8136H489.331V98.32H525.251C529.943 98.32 534.717 98.32 538.356 97.2688C540.217 96.7122 541.754 95.9084 542.887 94.7335C544.02 93.4968 544.587 91.889 544.587 89.7866C544.587 87.6842 543.939 86.0764 542.887 84.8397C541.754 83.603 540.217 82.7991 538.356 82.3044C534.717 81.2532 529.943 81.2532 525.251 81.2532L524.603 81.3151ZM525.17 91.7654H499.847V87.9315H525.17C527.597 87.9315 529.862 87.9315 531.561 88.2407C532.37 88.3644 533.017 88.6117 533.503 88.8591C533.907 89.1064 534.15 89.4156 534.15 89.9103C534.15 90.405 533.907 90.7141 533.503 90.9615C533.098 91.2088 532.451 91.4562 531.561 91.5798C529.782 91.7653 527.516 91.7654 525.17 91.7654ZM295.411 69.8136L317.174 94.919L305.038 108.956H317.578L351.556 69.8136H339.016L323.161 88.0552L307.304 69.8136H295.411Z" fill="#0921FF"/>
<path d="M765.203 41.9872C757.274 41.3689 749.589 40.7505 741.985 40.1322C716.338 37.9679 692.15 35.9891 662.783 35.9891H662.62C630.342 35.9891 604.129 38.2152 578.888 40.3177C553.161 42.4819 526.545 44.708 493.052 44.708H492.81C457.051 44.708 429.141 42.3583 402.2 40.1322C376.554 37.9679 352.365 35.9891 322.998 35.9891H322.836C290.557 35.9891 264.426 38.2152 239.104 40.3177C213.377 42.4819 186.761 44.708 153.268 44.708H152.864C117.105 44.708 89.1942 42.3583 62.1731 40.1322C36.5275 37.9679 12.3381 35.9891 -16.9481 35.9891H-17.1098C-49.3894 35.9891 -75.5204 38.2152 -100.842 40.3177C-106.991 40.8123 -113.139 41.3689 -119.45 41.8636V49.5931C-112.735 49.0984 -106.263 48.5418 -99.7098 47.9853C-73.4978 45.7592 -48.8231 43.7186 -17.0289 43.7186H-16.8671C11.9336 43.7186 35.8803 45.6974 61.2024 47.7998C88.466 50.0878 116.7 52.4375 153.025 52.4375H153.43C187.488 52.4375 214.348 50.2114 240.398 47.9853C266.61 45.7592 291.285 43.7186 323.08 43.7186H323.24C352.042 43.7186 375.988 45.6974 401.31 47.7998C428.574 50.0878 456.728 52.4375 493.052 52.4375H493.295C527.355 52.4375 554.213 50.2114 580.182 47.9853C606.394 45.7592 631.069 43.7186 662.864 43.7186H663.026C691.826 43.7186 715.773 45.6974 741.094 47.7998C749.023 48.48 757.113 49.1602 765.365 49.7786V41.9872H765.203Z" fill="#EBC263"/>
<path d="M765.203 125.961C757.274 125.342 749.589 124.724 741.985 124.106C716.338 121.941 692.15 119.963 662.783 119.963H662.62C630.342 119.963 604.129 122.189 578.888 124.291C553.161 126.455 526.545 128.681 493.052 128.681H492.81C457.051 128.681 429.141 126.332 402.2 124.106C376.554 121.941 352.365 119.963 322.998 119.963H322.836C290.557 119.963 264.426 122.189 239.104 124.291C213.377 126.455 186.761 128.681 153.268 128.681H152.864C117.105 128.681 89.1942 126.332 62.1731 124.106C36.5275 121.941 12.3381 119.963 -16.9481 119.963H-17.1098C-49.3894 119.963 -75.5204 122.189 -100.842 124.291C-106.991 124.786 -113.139 125.342 -119.45 125.837V133.566C-112.735 133.072 -106.263 132.515 -99.7098 131.959C-73.4978 129.733 -48.8231 127.692 -17.0289 127.692H-16.8671C11.9336 127.692 35.8803 129.671 61.2024 131.773C88.466 134.061 116.7 136.411 153.025 136.411H153.43C187.488 136.411 214.348 134.185 240.398 131.959C266.61 129.733 291.285 127.692 323.08 127.692H323.24C352.042 127.692 375.988 129.671 401.31 131.773C428.574 134.061 456.728 136.411 493.052 136.411H493.295C527.355 136.411 554.213 134.185 580.182 131.959C606.394 129.733 631.069 127.692 662.864 127.692H663.026C691.826 127.692 715.773 129.671 741.094 131.773C749.023 132.453 757.113 133.134 765.365 133.752V125.961H765.203Z" fill="#EBC263"/>
</g>
</g>
<defs>
<clipPath id="clip0_8_11">
<rect width="645" height="176" fill="white"/>
</clipPath>
</defs>
</svg>
