<svg width="960" height="444" viewBox="0 0 960 444" fill="none" xmlns="http://www.w3.org/2000/svg">
<path d="M872.81 1.84H841.02V353.18H946.38L960 321.53H872.81V1.84Z" fill="#201E5B"/>
<path d="M294.27 1.84H262.94V85.32L294.27 71.56V1.84Z" fill="#201E5B"/>
<path d="M294.27 102.75H262.94V353.18H294.27V102.75Z" fill="#201E5B"/>
<path d="M558.11 102.75V33.95H632.13L645.75 1.84H526.77V353.18H558.1V134.39H626.67L640.29 102.74H558.11V102.75Z" fill="#201E5B"/>
<path d="M798.33 321.53H710.69V134.39H784.71L798.33 102.74H710.69V33.94H798.33V1.83002H679.36V102.74H664.83L651.21 134.39H679.37V353.18H784.73L798.33 321.53Z" fill="#201E5B"/>
<path d="M271.11 395.84H262.94V442.63H271.11V395.84Z" fill="#201E5B"/>
<path d="M325.6 428.4L301.99 395.83H293.82V442.62H301.99V409.14L326.06 442.62H333.78V395.83H325.61V428.4H325.6Z" fill="#201E5B"/>
<path d="M353.3 403.18H367.38V442.63H375.55V403.18H389.63V395.84H353.3V403.18Z" fill="#201E5B"/>
<path d="M409.16 442.62H440.95V435.28H417.34V422.44H440.5V415.1H417.34V403.18H440.95V395.84H409.16V442.62Z" fill="#201E5B"/>
<path d="M497.26 410.51C497.26 401.79 491.36 395.83 482.27 395.83H461.83V442.62H470V425.19H478.17L488.61 442.62H498.15L486.8 424.27C491.81 423.36 497.26 418.77 497.26 410.51ZM470.01 417.85V403.17H480.91C485.45 403.17 488.63 405.92 488.63 410.51C488.63 415.1 485.45 417.85 480.91 417.85H470.01V417.85Z" fill="#201E5B"/>
<path d="M550.39 428.4L526.78 395.83H518.15V442.62H526.32V409.14L550.39 442.62H558.11V395.83H550.39V428.4Z" fill="#201E5B"/>
<path d="M594.44 395.84L576.28 442.63H585.36L588.54 433.46H609.88L613.06 442.63H622.14L603.98 395.84H594.44ZM590.8 426.57L599.43 404.09L607.6 426.11H590.8V426.57Z" fill="#201E5B"/>
<path d="M633.04 403.18H646.66V442.63H654.83V403.18H668.91V395.84H633.03V403.18H633.04Z" fill="#201E5B"/>
<path d="M696.61 395.84H688.44V442.63H696.61V395.84Z" fill="#201E5B"/>
<path d="M740.66 395.38C727.04 395.38 717.05 405.47 717.05 419.69C717.05 433.45 726.59 444 740.66 444C754.28 444 764.27 433.91 764.27 419.69C764.27 405.47 754.74 395.38 740.66 395.38ZM740.66 436.2C731.12 436.2 725.22 428.86 725.22 419.23C725.22 409.6 731.12 402.26 740.66 402.26C749.74 402.26 756.1 409.6 756.1 419.23C756.1 428.86 750.2 436.2 740.66 436.2Z" fill="#201E5B"/>
<path d="M816.95 428.4L793.34 395.83H785.17V442.62H793.34V409.14L817.41 442.62H825.13V395.83H816.96V428.4H816.95Z" fill="#201E5B"/>
<path d="M861 395.84L842.84 442.63H851.92L855.1 433.46H876.44L879.62 442.63H888.7L870.54 395.84H861ZM857.82 426.57L865.99 404.55L874.16 426.57H857.82Z" fill="#201E5B"/>
<path d="M915.5 395.84H907.33V442.63H935.49V435.29H915.5V395.84Z" fill="#201E5B"/>
<path d="M459.56 32.57C435.95 12.85 404.61 2.3 367.83 1.84H336.5V353.18H367.83V274.29C441.85 273.83 502.25 212.83 502.25 138.06C502.25 92.65 487.27 56.42 459.56 32.57ZM367.83 242.64V33.94C399.16 33.94 470.46 44.95 470.46 138.52C470.46 195.86 424.6 242.18 367.83 242.64Z" fill="#201E5B"/>
<path d="M220.25 102.75H158.49L144.87 134.4H189.37V410.06C98.09 402.26 30.88 323.83 30.88 221.55C30.88 91.29 128.06 32.12 218.43 32.12H219.79V0.470001H218.43C161.67 0.470001 108.08 20.19 68.12 56.43C23.61 96.78 0 154.12 0 221.54C0 281.17 19.98 336.67 56.31 377.03C94 419.23 146.68 442.16 204.35 442.16H219.79V118.8V102.75H220.25Z" fill="#201E5B"/>
</svg>
